<?xml version="1.0" encoding="UTF-8"?>
<svg xmlns="http://www.w3.org/2000/svg" xmlns:xlink="http://www.w3.org/1999/xlink" width="512px" height="512px" viewBox="0 0 512 512" version="1.1">
<g id="surface1">
<path style=" stroke:none;fill-rule:nonzero;fill:rgb(17.254902%,67.45098%,90.980392%);fill-opacity:1;" d="M 190.921875 512 L 62.921875 384 L 190.921875 256 L 318.921875 384 Z M 190.921875 512 "/>
<path style=" stroke:none;fill-rule:nonzero;fill:rgb(17.254902%,67.45098%,90.980392%);fill-opacity:1;" d="M 190.921875 256 L 62.921875 128 L 190.921875 0 L 318.921875 128 Z M 190.921875 256 "/>
<path style=" stroke:none;fill-rule:nonzero;fill:rgb(3.137255%,45.490196%,82.745098%);fill-opacity:1;" d="M 190.921875 256 L 318.921875 128 L 446.925781 256 L 318.921875 384 Z M 190.921875 256 "/>
<path style=" stroke:none;fill-rule:nonzero;fill:rgb(17.254902%,67.45098%,90.980392%);fill-opacity:1;" d="M 62.921875 256 L 126.921875 192 L 190.921875 256 L 126.921875 320 Z M 62.921875 256 "/>
<path style=" stroke:none;fill-rule:nonzero;fill:rgb(0.392157%,30.588235%,75.294118%);fill-opacity:1;" d="M 190.921875 256 L 254.921875 192 L 318.921875 256 L 254.921875 320 Z M 190.921875 256 "/>
<path style=" stroke:none;fill-rule:nonzero;fill:rgb(3.137255%,45.490196%,82.745098%);fill-opacity:1;" d="M 126.921875 320 L 190.921875 256 L 254.921875 320 L 190.921875 384 Z M 126.921875 320 "/>
<path style=" stroke:none;fill-rule:nonzero;fill:rgb(3.137255%,45.490196%,82.745098%);fill-opacity:1;" d="M 126.921875 192 L 190.921875 128 L 254.921875 192 L 190.921875 256 Z M 126.921875 192 "/>
</g>
</svg>
