<svg width="24" height="24" viewBox="0 0 24 24" fill="none" xmlns="http://www.w3.org/2000/svg">
<path d="M8.95312 24L2.95312 18L8.95312 12L14.9531 18L8.95312 24Z" fill="#2CACE8"/>
<path d="M8.95312 12L2.95312 6L8.95312 0L14.9531 6L8.95312 12Z" fill="#2CACE8"/>
<path d="M8.95312 12L14.9531 6L20.9531 12L14.9531 18L8.95312 12Z" fill="#0874D3"/>
<path d="M2.95312 12L5.95312 9L8.95312 12L5.95312 15L2.95312 12Z" fill="#2CACE8"/>
<path d="M8.95312 12L11.9531 9L14.9531 12L11.9531 15L8.95312 12Z" fill="#014EC0"/>
<path d="M5.95312 15L8.95312 12L11.9531 15L8.95312 18L5.95312 15Z" fill="#0874D3"/>
<path d="M5.95312 9L8.95312 6L11.9531 9L8.95312 12L5.95312 9Z" fill="#0874D3"/>
</svg>
