<svg width="13" height="13" viewBox="0 0 13 13" fill="none" xmlns="http://www.w3.org/2000/svg">
<path d="M4.84765 13L1.59766 9.75L4.84765 6.5L8.09765 9.75L4.84765 13Z" fill="#2CACE8"/>
<path d="M4.84765 6.5L1.59766 3.25L4.84765 0L8.09765 3.25L4.84765 6.5Z" fill="#2CACE8"/>
<path d="M4.84766 6.5L8.09765 3.25L11.3477 6.5L8.09765 9.75L4.84766 6.5Z" fill="#0874D3"/>
<path d="M1.59766 6.5L3.22266 4.875L4.84765 6.5L3.22266 8.125L1.59766 6.5Z" fill="#2CACE8"/>
<path d="M4.84766 6.5L6.47266 4.875L8.09765 6.5L6.47265 8.125L4.84766 6.5Z" fill="#014EC0"/>
<path d="M3.22266 8.125L4.84766 6.5L6.47265 8.125L4.84766 9.75L3.22266 8.125Z" fill="#0874D3"/>
<path d="M3.22266 4.875L4.84766 3.25L6.47265 4.875L4.84765 6.5L3.22266 4.875Z" fill="#0874D3"/>
</svg>
