<svg width="16" height="16" viewBox="0 0 16 16" fill="none" xmlns="http://www.w3.org/2000/svg">
<path d="M5.96875 16L1.96875 12L5.96875 8L9.96875 12L5.96875 16Z" fill="#2CACE8"/>
<path d="M5.96875 8L1.96875 4L5.96875 0L9.96875 4L5.96875 8Z" fill="#2CACE8"/>
<path d="M5.96875 8L9.96875 4L13.9687 8L9.96875 12L5.96875 8Z" fill="#0874D3"/>
<path d="M1.96875 8L3.96875 6L5.96875 8L3.96875 10L1.96875 8Z" fill="#2CACE8"/>
<path d="M5.96875 8L7.96875 6L9.96875 8L7.96875 10L5.96875 8Z" fill="#014EC0"/>
<path d="M3.96875 10L5.96875 8L7.96875 10L5.96875 12L3.96875 10Z" fill="#0874D3"/>
<path d="M3.96875 6L5.96875 4L7.96875 6L5.96875 8L3.96875 6Z" fill="#0874D3"/>
</svg>
