<svg width="24" height="24" viewBox="0 0 24 24" fill="none" xmlns="http://www.w3.org/2000/svg">
<path d="M14 17H19C20.1046 17 21 16.1046 21 15V5C21 3.89543 20.1046 3 19 3H9C7.89543 3 7 3.89543 7 5V10" stroke="#545555" stroke-linecap="round"/>
<path d="M5.28906 12.7227L6.09328 13.5269" stroke="#5F9A5C" stroke-width="0.855556" stroke-linecap="round" stroke-linejoin="round"/>
<path d="M7.91016 13.5269L8.71438 12.7227" stroke="#5F9A5C" stroke-width="0.855556" stroke-linecap="round" stroke-linejoin="round"/>
<path d="M5.71613 14.9168V14.489C5.70837 14.3156 5.73582 14.1425 5.79682 13.98C5.85781 13.8176 5.95109 13.6692 6.07102 13.5438C6.19096 13.4183 6.33506 13.3185 6.49463 13.2503C6.6542 13.1821 6.82593 13.147 6.99946 13.147C7.17299 13.147 7.34472 13.1821 7.50429 13.2503C7.66386 13.3185 7.80796 13.4183 7.9279 13.5438C8.04783 13.6692 8.14111 13.8176 8.2021 13.98C8.2631 14.1425 8.29055 14.3156 8.28279 14.489V14.9168" stroke="#5F9A5C" stroke-width="0.855556" stroke-linecap="round" stroke-linejoin="round"/>
<path d="M7.00026 20.4224C5.58859 20.4224 4.43359 19.2674 4.43359 17.8558V16.5724C4.43359 16.1186 4.61387 15.6834 4.93477 15.3625C5.25566 15.0416 5.69089 14.8613 6.1447 14.8613H7.85582C8.30963 14.8613 8.74486 15.0416 9.06575 15.3625C9.38665 15.6834 9.56693 16.1186 9.56693 16.5724V17.8558C9.56693 19.2674 8.41193 20.4224 7.00026 20.4224Z" stroke="#5F9A5C" stroke-width="0.855556" stroke-linecap="round" stroke-linejoin="round"/>
<path d="M7 20.4223V16.5723" stroke="#5F9A5C" stroke-width="0.855556" stroke-linecap="round" stroke-linejoin="round"/>
<path d="M4.6624 15.7165C3.83679 15.6309 3.15234 14.9037 3.15234 14.0054" stroke="#5F9A5C" stroke-width="0.855556" stroke-linecap="round" stroke-linejoin="round"/>
<path d="M4.43181 17.4277H2.7207" stroke="#5F9A5C" stroke-width="0.855556" stroke-linecap="round" stroke-linejoin="round"/>
<path d="M3.15234 20.8498C3.15234 19.9514 3.87957 19.1814 4.7779 19.1387" stroke="#5F9A5C" stroke-width="0.855556" stroke-linecap="round" stroke-linejoin="round"/>
<path d="M10.8371 14.0054C10.8371 14.9037 10.1526 15.6309 9.33984 15.7165" stroke="#5F9A5C" stroke-width="0.855556" stroke-linecap="round" stroke-linejoin="round"/>
<path d="M11.2775 17.4277H9.56641" stroke="#5F9A5C" stroke-width="0.855556" stroke-linecap="round" stroke-linejoin="round"/>
<path d="M9.22461 19.1387C10.1229 19.1814 10.8502 19.9514 10.8502 20.8498" stroke="#5F9A5C" stroke-width="0.855556" stroke-linecap="round" stroke-linejoin="round"/>
<path d="M13.9844 14L11.9844 12L13.9844 10L15.9844 12L13.9844 14Z" fill="#2CACE8"/>
<path d="M13.9844 10L11.9844 8L13.9844 6L15.9844 8L13.9844 10Z" fill="#2CACE8"/>
<path d="M13.9844 10L15.9844 8L17.9844 10L15.9844 12L13.9844 10Z" fill="#0874D3"/>
<path d="M11.9844 10L12.9844 9L13.9844 10L12.9844 11L11.9844 10Z" fill="#2CACE8"/>
<path d="M13.9844 10L14.9844 9L15.9844 10L14.9844 11L13.9844 10Z" fill="#014EC0"/>
<path d="M12.9844 11L13.9844 10L14.9844 11L13.9844 12L12.9844 11Z" fill="#0874D3"/>
<path d="M12.9844 9L13.9844 8L14.9844 9L13.9844 10L12.9844 9Z" fill="#0874D3"/>
</svg>
